<?xml version="1.0" standalone="no"?>
<!DOCTYPE svg PUBLIC "-//W3C//DTD SVG 20010904//EN"
 "http://www.w3.org/TR/2001/REC-SVG-20010904/DTD/svg10.dtd">
<svg version="1.0" xmlns="http://www.w3.org/2000/svg"
 width="64.000000pt" height="64.000000pt" viewBox="0 0 64.000000 64.000000"
 preserveAspectRatio="xMidYMid meet">

<g transform="translate(0.000000,64.000000) scale(0.100000,-0.100000)"
fill="#000000" stroke="none">
<path d="M371 587 c-43 -14 -97 -67 -105 -105 -7 -28 -8 -28 -59 -24 -29 2
-63 -1 -77 -7 -22 -10 -21 -11 15 -7 22 3 56 3 76 0 29 -5 38 -12 48 -40 7
-19 30 -48 52 -66 24 -20 39 -40 39 -54 0 -33 -45 -80 -95 -99 -34 -13 -45
-24 -50 -45 -3 -15 -20 -40 -36 -56 l-30 -29 10 28 c6 16 11 41 11 56 0 24 -6
30 -40 40 -110 33 -149 137 -78 213 16 17 26 33 24 36 -3 2 -19 -10 -35 -27
-33 -35 -47 -85 -36 -128 9 -39 78 -101 120 -109 41 -7 43 -20 15 -81 -17 -38
-17 -43 -3 -43 22 0 93 74 93 97 0 13 12 23 35 32 50 18 92 56 105 96 13 38
40 48 40 14 0 -25 70 -99 93 -99 14 0 14 5 -3 43 -24 51 -25 77 -5 77 23 0 88
35 107 59 10 12 14 21 10 21 -4 0 0 5 8 10 24 15 20 99 -8 137 -45 63 -150 89
-241 60z m-31 -67 c0 -6 -7 -22 -16 -35 -11 -16 -14 -34 -10 -51 9 -33 61 -84
87 -84 10 0 19 -4 19 -10 0 -29 -85 11 -110 52 -24 40 -25 69 -5 108 15 29 35
40 35 20z"/>
<path d="M125 350 c8 -13 105 -13 125 0 10 7 -7 10 -58 10 -46 0 -71 -4 -67
-10z"/>
<path d="M80 310 c0 -6 43 -10 110 -10 67 0 110 4 110 10 0 6 -43 10 -110 10
-67 0 -110 -4 -110 -10z"/>
<path d="M125 260 c8 -13 105 -13 125 0 10 7 -7 10 -58 10 -46 0 -71 -4 -67
-10z"/>
</g>
</svg>
